<svg width="33" height="32" viewBox="0 0 33 32" fill="none" xmlns="http://www.w3.org/2000/svg">
<g clip-path="url(#clip0_89_264)">
<path d="M24.3333 10.6667H25.6667C27.0812 10.6667 28.4377 11.2286 29.4379 12.2288C30.4381 13.229 31 14.5855 31 16C31 17.4145 30.4381 18.7711 29.4379 19.7712C28.4377 20.7714 27.0812 21.3333 25.6667 21.3333H24.3333M24.3333 10.6667H3V22.6667C3 24.0812 3.5619 25.4377 4.5621 26.4379C5.56229 27.4381 6.91885 28 8.33333 28H19C20.4145 28 21.771 27.4381 22.7712 26.4379C23.7714 25.4377 24.3333 24.0812 24.3333 22.6667V10.6667ZM8.33333 1.33334V5.33334M13.6667 1.33334V5.33334M19 1.33334V5.33334" stroke="#1E1E1E" stroke-width="3" stroke-linecap="round" stroke-linejoin="round"/>
</g>
<defs>
<clipPath id="clip0_89_264">
<rect width="32" height="32" fill="white" transform="translate(0.333496)"/>
</clipPath>
</defs>
</svg>
