<svg width="32" height="33" viewBox="0 0 32 33" fill="none" xmlns="http://www.w3.org/2000/svg">
<g clip-path="url(#clip0_89_248)">
<path d="M12.0002 1.83334V5.83334M20.0002 1.83334V5.83334M12.0002 27.1667V31.1667M20.0002 27.1667V31.1667M26.6668 12.5H30.6668M26.6668 19.1667H30.6668M1.3335 12.5H5.3335M1.3335 19.1667H5.3335M8.00016 5.83334H24.0002C25.4729 5.83334 26.6668 7.02725 26.6668 8.50001V24.5C26.6668 25.9728 25.4729 27.1667 24.0002 27.1667H8.00016C6.5274 27.1667 5.3335 25.9728 5.3335 24.5V8.50001C5.3335 7.02725 6.5274 5.83334 8.00016 5.83334ZM12.0002 12.5H20.0002V20.5H12.0002V12.5Z" stroke="#1E1E1E" stroke-width="3" stroke-linecap="round" stroke-linejoin="round"/>
</g>
<defs>
<clipPath id="clip0_89_248">
<rect width="32" height="32" fill="white" transform="translate(0 0.5)"/>
</clipPath>
</defs>
</svg>
