<svg width="33" height="32" viewBox="0 0 33 32" fill="none" xmlns="http://www.w3.org/2000/svg">
<path d="M28.6665 15.3333C28.6711 17.0932 28.2599 18.8292 27.4665 20.4C26.5257 22.2823 25.0795 23.8656 23.2898 24.9724C21.5 26.0792 19.4375 26.6659 17.3332 26.6667C15.5733 26.6713 13.8373 26.2601 12.2665 25.4667L4.6665 28L7.19984 20.4C6.40641 18.8292 5.99525 17.0932 5.99984 15.3333C6.00065 13.229 6.58732 11.1665 7.69413 9.37673C8.80094 7.587 10.3842 6.14076 12.2665 5.2C13.8373 4.40657 15.5733 3.99541 17.3332 4H17.9998C20.779 4.15332 23.4039 5.32635 25.372 7.29448C27.3402 9.26261 28.5132 11.8875 28.6665 14.6667V15.3333Z" stroke="#1E1E1E" stroke-width="3" stroke-linecap="round" stroke-linejoin="round"/>
</svg>
